<?xml version="1.0" encoding="UTF-8"?>
<svg xmlns="http://www.w3.org/2000/svg" viewBox="0 0 256 256" width="256" height="256">
  <defs>
    <linearGradient id="bg" x1="0" y1="0" x2="0" y2="1">
      <stop offset="0" stop-color="#1f3a8a"/>
      <stop offset="1" stop-color="#0b1538"/>
    </linearGradient>
    <linearGradient id="shield" x1="0" y1="0" x2="0" y2="1">
      <stop offset="0" stop-color="#3b82f6"/>
      <stop offset="1" stop-color="#1e40af"/>
    </linearGradient>
  </defs>

  <rect width="256" height="256" rx="44" fill="url(#bg)"/>

  <!-- Shield -->
  <path d="M128 34 L208 62 L208 128 C208 172 176 208 128 224 C80 208 48 172 48 128 L48 62 Z"
        fill="url(#shield)" stroke="#60a5fa" stroke-width="3"/>

  <!-- Lock body -->
  <rect x="92" y="124" width="72" height="56" rx="8" fill="#f8fafc"/>

  <!-- Lock shackle -->
  <path d="M108 124 L108 104 C108 93 117 84 128 84 C139 84 148 93 148 104 L148 124"
        fill="none" stroke="#f8fafc" stroke-width="10" stroke-linecap="round"/>

  <!-- Keyhole -->
  <circle cx="128" cy="146" r="7" fill="#1e40af"/>
  <rect x="125" y="146" width="6" height="18" fill="#1e40af"/>

  <!-- Corner accent dots (representing REST endpoints blocked) -->
  <circle cx="72" cy="78" r="4" fill="#60a5fa" opacity="0.6"/>
  <circle cx="184" cy="78" r="4" fill="#60a5fa" opacity="0.6"/>
</svg>
